<svg version="1.1" id="Layer_1" xmlns="http://www.w3.org/2000/svg" xmlns:xlink="http://www.w3.org/1999/xlink" x="0px" y="0px"
	 width="100%" viewBox="0 0 512 512" enable-background="new 0 0 512 512" xml:space="preserve">
<path fill="#000000" opacity="1.000000" stroke="none" 
	d="
M467.000000,513.000000 
	C311.371185,513.000000 156.242371,513.000000 1.056782,513.000000 
	C1.056782,342.412842 1.056782,171.825653 1.056782,1.119236 
	C171.545456,1.119236 342.091034,1.119236 512.818298,1.119236 
	C512.818298,171.666504 512.818298,342.333252 512.818298,513.000000 
	C497.825592,513.000000 482.662811,513.000000 467.000000,513.000000 
M381.486267,237.997528 
	C379.604584,242.000854 376.512115,245.881393 376.091125,250.032837 
	C375.191467,258.904358 374.873932,267.999237 375.791809,276.849731 
	C376.974152,288.250214 384.310181,295.809509 394.795380,297.882812 
	C407.061707,300.308319 418.455627,298.845215 426.926056,288.401520 
	C428.733215,286.173370 429.615448,283.195038 431.322174,279.760651 
	C424.042755,280.737579 416.789368,277.166656 412.058685,284.651428 
	C411.546265,285.462128 410.057404,285.755798 408.959747,286.081146 
	C396.359894,289.815582 388.641235,282.447937 390.370300,267.765320 
	C403.824860,267.765320 417.356842,267.765320 430.976166,267.765320 
	C431.719849,253.679962 432.427032,240.075211 417.759216,232.530289 
	C406.200439,226.584610 391.293060,228.835587 381.486267,237.997528 
M311.421509,230.696716 
	C308.630188,230.696716 305.838867,230.696716 303.013275,230.696716 
	C303.013275,246.757233 303.008362,262.368286 303.030579,277.979309 
	C303.031494,278.629578 303.256287,279.287323 303.426605,279.928345 
	C306.947357,293.179596 318.061462,300.114838 333.498993,298.701050 
	C347.627655,297.407135 356.670563,288.845551 357.203064,275.112823 
	C357.738525,261.303223 357.411377,247.459869 357.431824,233.631256 
	C357.433197,232.706757 357.177429,231.781876 357.060577,230.988403 
	C351.940125,230.988403 347.169159,230.988403 342.176086,230.988403 
	C342.176086,238.102142 342.177063,244.925552 342.175842,251.748962 
	C342.174591,258.747345 342.273926,265.747650 342.141876,272.743561 
	C341.987457,280.926422 337.477783,285.637634 330.064941,285.644440 
	C322.697693,285.651215 318.078400,280.875122 317.989166,272.746613 
	C317.861145,261.084045 317.952209,249.419052 317.949921,237.755096 
	C317.949463,235.502609 317.949829,233.250137 317.949829,230.696747 
	C315.635193,230.696747 313.983917,230.696747 311.421509,230.696716 
M186.272507,229.329620 
	C184.774887,229.352081 183.266342,229.265152 181.781326,229.413681 
	C164.209961,231.171112 155.956009,240.293579 155.942474,257.932892 
	C155.938248,263.431152 155.814194,268.934052 155.996063,274.426514 
	C156.245789,281.967590 159.098648,288.358490 165.191620,293.032806 
	C175.294281,300.783234 193.021057,300.895782 203.201462,293.243195 
	C209.155655,288.767487 212.078705,282.712158 212.279007,275.000580 
	C207.119202,275.000580 202.215912,275.000580 197.396011,275.000580 
	C194.766800,283.387024 189.755569,286.585083 181.591385,285.298279 
	C174.542313,284.187256 171.082718,279.635742 171.032700,271.344086 
	C171.003571,266.512421 170.999634,261.680206 171.032578,256.848572 
	C171.102020,246.665756 176.487473,241.884720 186.574448,242.891510 
	C193.028320,243.535690 196.212830,247.493057 197.393402,253.449432 
	C202.371887,253.449432 207.134430,253.449432 212.957947,253.449432 
	C211.793182,249.533813 211.238953,245.903534 209.682465,242.771286 
	C205.114639,233.579102 196.744156,230.369217 186.272507,229.329620 
M245.136139,245.500015 
	C245.142288,255.666138 244.986816,265.835632 245.197876,275.997498 
	C245.431717,287.255768 251.498398,295.709778 261.493011,296.859039 
	C270.293396,297.871002 279.302216,297.070709 288.443420,297.070709 
	C288.443420,292.877655 288.443420,288.619904 288.443420,283.844299 
	C282.453033,283.844299 276.670044,283.860016 270.887146,283.840546 
	C262.686493,283.812927 260.453339,281.680847 260.418976,273.482544 
	C260.354004,257.983643 260.398651,242.484283 260.397919,226.985107 
	C260.397644,221.037155 260.397888,215.089218 260.397888,208.988861 
	C247.996887,208.988861 236.075089,208.988861 223.987366,208.988861 
	C223.987366,213.441727 223.987366,217.676849 223.987366,222.489227 
	C231.088211,222.489227 237.963028,222.489227 245.136154,222.489227 
	C245.136154,230.209656 245.136154,237.354858 245.136139,245.500015 
M103.258026,233.346741 
	C96.823959,230.373367 90.389885,227.399979 83.337784,224.141006 
	C83.337784,227.086121 83.660263,229.274216 83.275932,231.330185 
	C82.221069,236.973175 84.947792,239.512909 89.877556,241.605927 
	C101.699730,246.625229 113.278481,252.217880 125.011467,257.604858 
	C112.197548,263.497009 99.505959,269.252380 86.918907,275.227966 
	C85.432350,275.933685 83.710945,277.732941 83.501198,279.222809 
	C83.001045,282.775421 83.339905,286.446106 83.339905,290.574249 
	C85.029137,289.904755 86.247231,289.495514 87.402641,288.952789 
	C100.798973,282.660004 114.168594,276.310059 127.580742,270.051239 
	C138.035889,265.172302 137.922913,265.218262 138.041779,253.825592 
	C138.074966,250.643951 136.988007,249.194946 134.163254,247.924103 
	C124.005272,243.354034 113.985306,238.477188 103.258026,233.346741 
z"/>
<path fill="#F7F7F7" opacity="1.000000" stroke="none" 
	d="
M381.735718,237.743073 
	C391.293060,228.835587 406.200439,226.584610 417.759216,232.530289 
	C432.427032,240.075211 431.719849,253.679962 430.976166,267.765320 
	C417.356842,267.765320 403.824860,267.765320 390.370300,267.765320 
	C388.641235,282.447937 396.359894,289.815582 408.959747,286.081146 
	C410.057404,285.755798 411.546265,285.462128 412.058685,284.651428 
	C416.789368,277.166656 424.042755,280.737579 431.322174,279.760651 
	C429.615448,283.195038 428.733215,286.173370 426.926056,288.401520 
	C418.455627,298.845215 407.061707,300.308319 394.795380,297.882812 
	C384.310181,295.809509 376.974152,288.250214 375.791809,276.849731 
	C374.873932,267.999237 375.191467,258.904358 376.091125,250.032837 
	C376.512115,245.881393 379.604584,242.000854 381.735718,237.743073 
M390.718353,249.655334 
	C390.395203,252.364227 390.072052,255.073135 389.735138,257.897644 
	C399.044556,257.897644 407.617889,257.897644 416.150421,257.897644 
	C417.109894,249.427261 414.481445,243.909088 408.665253,242.103165 
	C401.866302,239.992065 393.398987,241.762604 390.718353,249.655334 
z"/>
<path fill="#FAFAFA" opacity="1.000000" stroke="none" 
	d="
M311.877075,230.696732 
	C313.983917,230.696747 315.635193,230.696747 317.949829,230.696747 
	C317.949829,233.250137 317.949463,235.502609 317.949921,237.755096 
	C317.952209,249.419052 317.861145,261.084045 317.989166,272.746613 
	C318.078400,280.875122 322.697693,285.651215 330.064941,285.644440 
	C337.477783,285.637634 341.987457,280.926422 342.141876,272.743561 
	C342.273926,265.747650 342.174591,258.747345 342.175842,251.748962 
	C342.177063,244.925552 342.176086,238.102142 342.176086,230.988403 
	C347.169159,230.988403 351.940125,230.988403 357.060577,230.988403 
	C357.177429,231.781876 357.433197,232.706757 357.431824,233.631256 
	C357.411377,247.459869 357.738525,261.303223 357.203064,275.112823 
	C356.670563,288.845551 347.627655,297.407135 333.498993,298.701050 
	C318.061462,300.114838 306.947357,293.179596 303.426605,279.928345 
	C303.256287,279.287323 303.031494,278.629578 303.030579,277.979309 
	C303.008362,262.368286 303.013275,246.757233 303.013275,230.696716 
	C305.838867,230.696716 308.630188,230.696716 311.877075,230.696732 
z"/>
<path fill="#F9F9F9" opacity="1.000000" stroke="none" 
	d="
M186.713348,229.374329 
	C196.744156,230.369217 205.114639,233.579102 209.682465,242.771286 
	C211.238953,245.903534 211.793182,249.533813 212.957947,253.449432 
	C207.134430,253.449432 202.371887,253.449432 197.393402,253.449432 
	C196.212830,247.493057 193.028320,243.535690 186.574448,242.891510 
	C176.487473,241.884720 171.102020,246.665756 171.032578,256.848572 
	C170.999634,261.680206 171.003571,266.512421 171.032700,271.344086 
	C171.082718,279.635742 174.542313,284.187256 181.591385,285.298279 
	C189.755569,286.585083 194.766800,283.387024 197.396011,275.000580 
	C202.215912,275.000580 207.119202,275.000580 212.279007,275.000580 
	C212.078705,282.712158 209.155655,288.767487 203.201462,293.243195 
	C193.021057,300.895782 175.294281,300.783234 165.191620,293.032806 
	C159.098648,288.358490 156.245789,281.967590 155.996063,274.426514 
	C155.814194,268.934052 155.938248,263.431152 155.942474,257.932892 
	C155.956009,240.293579 164.209961,231.171112 181.781326,229.413681 
	C183.266342,229.265152 184.774887,229.352081 186.713348,229.374329 
z"/>
<path fill="#FAFAFA" opacity="1.000000" stroke="none" 
	d="
M245.136139,245.000031 
	C245.136154,237.354858 245.136154,230.209656 245.136154,222.489227 
	C237.963028,222.489227 231.088211,222.489227 223.987366,222.489227 
	C223.987366,217.676849 223.987366,213.441727 223.987366,208.988861 
	C236.075089,208.988861 247.996887,208.988861 260.397888,208.988861 
	C260.397888,215.089218 260.397644,221.037155 260.397919,226.985107 
	C260.398651,242.484283 260.354004,257.983643 260.418976,273.482544 
	C260.453339,281.680847 262.686493,283.812927 270.887146,283.840546 
	C276.670044,283.860016 282.453033,283.844299 288.443420,283.844299 
	C288.443420,288.619904 288.443420,292.877655 288.443420,297.070709 
	C279.302216,297.070709 270.293396,297.871002 261.493011,296.859039 
	C251.498398,295.709778 245.431717,287.255768 245.197876,275.997498 
	C244.986816,265.835632 245.142288,255.666138 245.136139,245.000031 
z"/>
<path fill="#F6F6F6" opacity="1.000000" stroke="none" 
	d="
M103.585602,233.531494 
	C113.985306,238.477188 124.005272,243.354034 134.163254,247.924103 
	C136.988007,249.194946 138.074966,250.643951 138.041779,253.825592 
	C137.922913,265.218262 138.035889,265.172302 127.580742,270.051239 
	C114.168594,276.310059 100.798973,282.660004 87.402641,288.952789 
	C86.247231,289.495514 85.029137,289.904755 83.339905,290.574249 
	C83.339905,286.446106 83.001045,282.775421 83.501198,279.222809 
	C83.710945,277.732941 85.432350,275.933685 86.918907,275.227966 
	C99.505959,269.252380 112.197548,263.497009 125.011467,257.604858 
	C113.278481,252.217880 101.699730,246.625229 89.877556,241.605927 
	C84.947792,239.512909 82.221069,236.973175 83.275932,231.330185 
	C83.660263,229.274216 83.337784,227.086121 83.337784,224.141006 
	C90.389885,227.399979 96.823959,230.373367 103.585602,233.531494 
z"/>
<path fill="#080808" opacity="1.000000" stroke="none" 
	d="
M390.840424,249.272675 
	C393.398987,241.762604 401.866302,239.992065 408.665253,242.103165 
	C414.481445,243.909088 417.109894,249.427261 416.150421,257.897644 
	C407.617889,257.897644 399.044556,257.897644 389.735138,257.897644 
	C390.072052,255.073135 390.395203,252.364227 390.840424,249.272675 
z"/>
</svg>